<svg width="18" height="12" viewBox="0 0 18 12" fill="none" xmlns="http://www.w3.org/2000/svg">
<path d="M3.68 5.56C3.15733 5.56 2.688 5.448 2.272 5.224C1.86667 5 1.54667 4.68533 1.312 4.28C1.07733 3.87467 0.96 3.42133 0.96 2.92C0.96 2.41867 1.07733 1.96533 1.312 1.56C1.54667 1.15467 1.86667 0.84 2.272 0.615999C2.688 0.392 3.15733 0.28 3.68 0.28C4.20267 0.28 4.66667 0.392 5.072 0.615999C5.488 0.84 5.81333 1.15467 6.048 1.56C6.28267 1.96533 6.4 2.41867 6.4 2.92C6.4 3.42133 6.28267 3.87467 6.048 4.28C5.81333 4.68533 5.488 5 5.072 5.224C4.66667 5.448 4.20267 5.56 3.68 5.56ZM3.68 4.52C4.14933 4.52 4.53333 4.37067 4.832 4.072C5.13067 3.76267 5.28 3.37867 5.28 2.92C5.28 2.45067 5.13067 2.06667 4.832 1.768C4.53333 1.46933 4.14933 1.32 3.68 1.32C3.22133 1.32 2.83733 1.46933 2.528 1.768C2.22933 2.06667 2.08 2.45067 2.08 2.92C2.08 3.37867 2.22933 3.76267 2.528 4.072C2.83733 4.37067 3.22133 4.52 3.68 4.52ZM17.5994 8.296C17.2687 9.192 16.7247 9.896 15.9674 10.408C15.21 10.9093 14.3354 11.16 13.3434 11.16C12.3514 11.16 11.4874 10.9413 10.7514 10.504C10.0154 10.056 9.44471 9.42667 9.03938 8.616C8.64471 7.79467 8.44738 6.82933 8.44738 5.72C8.44738 4.62133 8.64471 3.66133 9.03938 2.84C9.44471 2.01867 10.0154 1.38933 10.7514 0.952C11.4874 0.504 12.3407 0.28 13.3114 0.28C14.3247 0.28 15.1727 0.488 15.8554 0.903999C16.5487 1.32 17.066 1.93333 17.4074 2.744L16.1434 3.336C15.9087 2.71733 15.5674 2.25333 15.1194 1.944C14.6714 1.63467 14.1007 1.48 13.4074 1.48C12.682 1.48 12.0474 1.65067 11.5034 1.992C10.9594 2.32267 10.538 2.808 10.2394 3.448C9.94071 4.088 9.79138 4.84533 9.79138 5.72C9.79138 7.04267 10.106 8.08267 10.7354 8.84C11.3754 9.58667 12.2447 9.96 13.3434 9.96C14.058 9.96 14.6767 9.77867 15.1994 9.416C15.722 9.05333 16.0954 8.52 16.3194 7.816L17.5994 8.296Z" fill="#A4A4A4"/>
</svg>
